<svg id="Design" xmlns="http://www.w3.org/2000/svg" viewBox="0 0 28.8 32"><defs><style>.cls-1{fill:#3389ed;}</style></defs><title>icon_date</title><path class="cls-1" d="M549.61,638.75h-3.2V642h3.2Zm6.4,0h-3.2V642H556Zm6.4,0h-3.2V642h3.2Zm-12.8,7.2h-3.2v3.2h3.2Zm6.4,0h-3.2v3.2H556Zm6.4,0h-3.2v3.2h3.2Zm3.2-18.4H564v-3.2h-3.2v3.2H548v-3.2h-3.2v3.2h-1.6a3.19,3.19,0,0,0-3.18,3.2l0,22.4a3.2,3.2,0,0,0,3.2,3.2h22.4a3.21,3.21,0,0,0,3.2-3.2v-22.4A3.21,3.21,0,0,0,565.61,627.55Zm0,25.6h-22.4v-17.6h22.4Z" transform="translate(-540.01 -624.35)"/></svg>