<svg id="Design" xmlns="http://www.w3.org/2000/svg" viewBox="0 0 24 21.33"><defs><style>.cls-1{fill:#fff;}</style></defs><title>icon_car</title><path class="cls-1" d="M1323.54,631.61a2,2,0,0,0-1.89-1.35H1307a2,2,0,0,0-1.89,1.35l-2.77,8v10.67a1.34,1.34,0,0,0,1.33,1.33H1305a1.34,1.34,0,0,0,1.33-1.33v-1.33h16v1.33a1.34,1.34,0,0,0,1.33,1.33H1325a1.34,1.34,0,0,0,1.33-1.33V639.6ZM1307,644.93a2,2,0,1,1,2-2A2,2,0,0,1,1307,644.93Zm14.67,0a2,2,0,1,1,2-2A2,2,0,0,1,1321.65,644.93ZM1305,638.27l2-6h14.67l2,6Z" transform="translate(-1302.32 -630.27)"/></svg>